<svg xmlns="http://www.w3.org/2000/svg" width="31.999" height="27.2" viewBox="0 0 31.999 27.2">
  <path id="briefcase" d="M14.4,16h3.2v3.2H32s-.238-7.134-.32-9.366C31.6,7.712,30.84,6.4,28.48,6.4H23.347c-.8-1.5-1.651-3.112-1.915-3.61-.53-1-.71-1.19-1.886-1.19H12.453c-1.176,0-1.355.194-1.886,1.19-.264.5-1.12,2.109-1.914,3.61H3.519C1.157,6.4.407,7.712.319,9.834S0,19.2,0,19.2H14.4V16ZM12.238,4.666c.368-.691.493-.826,1.307-.826h4.907c.814,0,.941.134,1.306.826.138.256.509.96.92,1.734h-9.36c.411-.774.782-1.478.92-1.734ZM17.6,24H14.4V20.8H.8s.2,2.875.318,5.315C1.168,27.128,1.467,28.8,4,28.8H28c2.531,0,2.824-1.675,2.88-2.685.139-2.509.32-5.315.32-5.315H17.6Z" transform="translate(-0.001 -1.6)" fill="#34bcef"/>
</svg>
