<svg xmlns="http://www.w3.org/2000/svg" width="24.997" height="25" viewBox="0 0 24.997 25">
  <path id="warning" d="M24.669,20.477,15.295,1.727a3.124,3.124,0,0,0-5.589,0L.332,20.477A3.124,3.124,0,0,0,3.126,25H21.874a3.125,3.125,0,0,0,2.8-4.523Zm-10.608.616a.781.781,0,0,1-.781.781H11.718a.781.781,0,0,1-.781-.781V19.531a.781.781,0,0,1,.781-.781H13.28a.781.781,0,0,1,.781.781Zm0-6.25a.781.781,0,0,1-.781.781H11.718a.781.781,0,0,1-.781-.781V7.031a.781.781,0,0,1,.781-.781H13.28a.781.781,0,0,1,.781.781Z" transform="translate(-0.002)" fill="#f88b8b"/>
</svg>
